<?xml version="1.0" standalone="no"?><!DOCTYPE svg PUBLIC "-//W3C//DTD SVG 1.1//EN" "http://www.w3.org/Graphics/SVG/1.1/DTD/svg11.dtd"><svg class="icon" width="32px" height="32.00px" viewBox="0 0 1024 1024" version="1.1" xmlns="http://www.w3.org/2000/svg"><path fill="#515151" d="M154.2 199h713c23.7 0 43-19.3 43-43s-19.3-43-43-43h-713c-23.7 0-43 19.3-43 43s19.3 43 43 43zM154.2 489.9h713c23.7 0 43-19.3 43-43s-19.3-43-43-43h-713c-23.7 0-43 19.3-43 43s19.3 43 43 43zM411.2 694.8h-257c-23.7 0-43 19.3-43 43s19.3 43 43 43h257c23.7 0 43-19.3 43-43 0-23.8-19.2-43-43-43zM868.2 694.8h-85v-85.5c0-23.7-19.3-43-43-43s-43 19.3-43 43v85.5h-86c-23.7 0-43 19.3-43 43s19.3 43 43 43h86v85.5c0 23.7 19.3 43 43 43s43-19.3 43-43v-85.5h85c23.7 0 43-19.3 43-43 0-23.8-19.2-43-43-43z" /></svg>