<?xml version="1.0" standalone="no"?><!DOCTYPE svg PUBLIC "-//W3C//DTD SVG 1.1//EN" "http://www.w3.org/Graphics/SVG/1.1/DTD/svg11.dtd"><svg class="icon" width="32px" height="32.00px" viewBox="0 0 1000 1000" version="1.1" xmlns="http://www.w3.org/2000/svg"><path fill="#515151" d="M278.5498 475.8344c81.0734-17.4172 70.0385-114.2965 67.605-135.4781-3.9775-32.6519-42.3721-89.6952-94.5149-85.1992-65.6143 5.881-75.1922 100.6558-75.1922 100.6558C167.5694 399.639 197.6743 493.2366 278.5498 475.8344zM364.6361 644.3291c-2.3805 6.8194-7.6741 24.2366-3.08 39.3993 9.0442 34.0369 38.5895 35.5629 38.5895 35.5629h42.45499862087712V615.5276722382225h-45.452092469189594C376.7054 621.6185 366.8467 637.5098 364.6361 644.3291zM429.0171 313.3605c44.7785 0 80.9615-51.5261 80.9615-115.2339 0-63.6498-36.184-115.1619-80.9615-115.1619-44.6946 0-80.9875 51.5121-80.9875 115.1619C348.0297 261.8345 384.3226 313.3605 429.0171 313.3605zM621.8535 320.9774c59.8449 7.7707 98.3225-56.091 105.9676-104.4952 7.815-48.3322-30.8044-104.4922-73.1735-114.1386-42.455-9.7314-95.4663 58.2595-100.2842 102.6024C548.5941 259.1453 562.1215 313.2896 621.8535 320.9774zM768.4842 605.5145c0 0-92.5811-71.6304-146.6307-149.0589-73.2594-114.1556-177.3482-67.6961-212.1591-9.6465-34.6699 58.0496-88.6896 94.7628-96.3637 104.4922-7.7821 9.5775-111.8489 65.7374-88.7446 168.3539 23.1043 102.5335 104.2327 100.5718 104.2327 100.5718s59.787 5.881 129.1549-9.6465c69.3939-15.3866 129.1269 3.8514 129.1269 3.8514s162.0899 54.2702 206.4467-50.2239C837.8521 659.7157 768.4842 605.5145 768.4842 605.5145zM491.1586 761.016H385.7786447819187c-45.5061-9.0728-63.6245-40.1278-65.9211-45.4212-2.2396-5.3764-15.1504-30.3414-8.3197-72.7946 19.6605-63.6359 75.7508-68.2008 75.7508-68.2008h56.09332464552544v-68.9432564721119l47.7746 0.7285V761.0160311308932zM687.4138 760.2885H566.1529267385943c-46.9891-12.1128-49.2027-45.4902-49.2027-45.4902V580.6902919820361l49.2027-0.7975v120.5242845350852c2.9971 12.8553 18.9609 15.1777 18.9609 15.1777h49.95922593230705V580.6902919820361h52.33971194320412V760.28852438047zM859.0786 402.2563c0-23.1613-19.2388-92.887-90.5944-92.887-71.4675 0-81.0165 65.8064-81.0165 112.3348 0 44.3979 3.7536 106.3819 92.5272 104.4092C868.7964 524.1516 859.0786 425.5405 859.0786 402.2563z" /></svg>