<?xml version="1.0" standalone="no"?><!DOCTYPE svg PUBLIC "-//W3C//DTD SVG 1.1//EN" "http://www.w3.org/Graphics/SVG/1.1/DTD/svg11.dtd"><svg class="icon" width="32px" height="32.00px" viewBox="0 0 1024 1024" version="1.1" xmlns="http://www.w3.org/2000/svg"><path fill="#515151" d="M532.234581 1023.597687a467.396729 467.396729 0 0 0 356.674291-143.398406A461.874031 461.874031 0 0 0 1010.216483 553.171144a457.501894 457.501894 0 0 0-7.670415-87.481082H532.234581v139.793311h334.430088a293.124904 293.124904 0 0 1-75.975459 175.959317 342.905896 342.905896 0 0 1-258.339572 102.323334 366.990999 366.990999 0 0 1-366.875943-372.015121 367.106055 367.106055 0 0 1 366.875943-372.01512 356.674291 356.674291 0 0 1 252.049832 99.715393l98.603183-98.564831a488.106849 488.106849 0 0 0-350.614663-140.828817A518.980269 518.980269 0 0 0 13.062552 511.942664a518.673453 518.673453 0 0 0 519.172029 511.655023z" /></svg>