<?xml version="1.0" encoding="UTF-8" standalone="no"?>
<svg
   t="1624590286385"
   class="icon"
   viewBox="0 0 1039 1024"
   version="1.1"
   p-id="4058"
   width="32.46875"
   height="32"
   id="svg10"
   sodipodi:docname="OCR.svg"
   inkscape:version="1.1 (c4e8f9ed74, 2021-05-24)"
   xmlns:inkscape="http://www.inkscape.org/namespaces/inkscape"
   xmlns:sodipodi="http://sodipodi.sourceforge.net/DTD/sodipodi-0.dtd"
   xmlns="http://www.w3.org/2000/svg"
   xmlns:svg="http://www.w3.org/2000/svg">
  <sodipodi:namedview
     id="namedview12"
     pagecolor="#ffffff"
     bordercolor="#666666"
     borderopacity="1.0"
     inkscape:pageshadow="2"
     inkscape:pageopacity="0.0"
     inkscape:pagecheckerboard="0"
     showgrid="false"
     inkscape:zoom="20.625"
     inkscape:cx="6.9090909"
     inkscape:cy="15.975758"
     inkscape:window-width="1920"
     inkscape:window-height="1043"
     inkscape:window-x="1920"
     inkscape:window-y="0"
     inkscape:window-maximized="1"
     inkscape:current-layer="svg10" />
  <defs
     id="defs4">
    <style
       type="text/css"
       id="style2" />
  </defs>
  <path
     d="M387.391758 946.720048H116.623927c-21.463987 0-38.879976-17.303989-38.879976-38.639976V640.824239c0-21.335987-17.399989-38.631976-38.879975-38.631975-21.455987 0-38.863976 17.295989-38.863976 38.639975v267.247833C0 972.104032 52.215967 1024 116.623927 1024h270.767831c21.471987 0 38.871976-17.295989 38.871976-38.639976s-17.399989-38.639976-38.871976-38.639976z m607.75162-344.535784c-21.471987 0-38.879976 17.303989-38.879976 38.639975v267.255833c0 21.335987-17.399989 38.639976-38.879975 38.639976H646.959596a38.919976 38.919976 0 0 0-33.671979 19.327988 38.439976 38.439976 0 0 0 0 38.631976A38.919976 38.919976 0 0 0 646.959596 1024h270.76783c64.40796 0 116.623927-51.895968 116.623928-115.919928V640.824239a38.511976 38.511976 0 0 0-11.503993-27.423982 38.991976 38.991976 0 0 0-27.695983-11.199993v-0.016zM38.871976 421.808376c21.471987 0 38.879976-17.295989 38.879975-38.639975V115.920568c0-21.335987 17.407989-38.639976 38.871976-38.639976h270.767831c21.471987 0 38.871976-17.295989 38.871976-38.639976 0-21.335987-17.391989-38.639976-38.871976-38.639976H116.623927C52.215967 0.00064 0 51.904608 0 115.920568v267.255833c0 21.335987 17.407989 38.631976 38.871976 38.631975zM917.391427 0.00064H646.951596c-21.471987 0-38.871976 17.303989-38.871976 38.639976 0 21.343987 17.383989 38.623976 38.871976 38.623976h270.76783c21.463987 0 38.871976 17.303989 38.871976 38.639976v267.255833c0 21.343987 17.407989 38.639976 38.879976 38.639975 21.463987 0 38.871976-17.295989 38.871976-38.639975V115.920568c0-30.799981-12.327992-60.335962-34.279979-82.079949A116.983927 116.983927 0 0 0 917.391427 0.00064z"
     p-id="4059"
     id="path6"
     style="fill:#004d61;fill-opacity:1" />
  <path
     d="M839.439475 175.84053c34.223979 0 60.439962 28.191982 60.439963 60.415962V798.080141c0 32.23198-28.215982 60.423962-60.447963 60.423962h-644.559597c-34.231979 0-60.399962-28.191982-60.399962-60.423962V236.256492c0-34.247979 26.159984-60.415962 60.399962-60.415962h644.567597zM329.063794 278.880466c-31.015981 0-58.383964 25.359984-58.383963 57.959963s27.359983 57.959964 58.383963 57.959964c32.839979 0 58.383964-25.359984 58.383964-57.959964 0-32.60798-27.359983-57.959964-58.383964-57.959963zM284.799822 768.34416s524.263672 0 524.271672-1.999999v-351.19978c-27.815983-57.535964-75.455953-5.943996-85.375946 3.975997L531.031668 625.480249l-107.239933-75.407953c-11.903993-7.927995-25.815984-5.943996-35.751978 3.975998l-123.119923 172.631892c-9.935994 11.895993-9.935994 25.783984 1.967999 35.703978 5.967996 3.959998 11.919993 5.959996 17.895989 5.959996h0.008z"
     p-id="4060"
     id="path8"
     style="fill:#348498;fill-opacity:1" />
</svg>
