<?xml version="1.0" standalone="no"?><!DOCTYPE svg PUBLIC "-//W3C//DTD SVG 1.1//EN" "http://www.w3.org/Graphics/SVG/1.1/DTD/svg11.dtd"><svg class="icon" width="32px" height="32.00px" viewBox="0 0 1024 1024" version="1.1" xmlns="http://www.w3.org/2000/svg"><path fill="#515151" d="M768 192a64 64 0 0 1 64 64v384a64 64 0 0 1-64 64h-576a64 64 0 0 1-64-64v-384a64 64 0 0 1 64-64h576m0-64h-576a128 128 0 0 0-128 128v384a128 128 0 0 0 128 128h576a128 128 0 0 0 128-128v-384a128 128 0 0 0-128-128z"  /><path fill="#515151" d="M448 704h64v192h-64z"  /><path fill="#515151" d="M256 896m32 0l384 0q32 0 32 32l0 0q0 32-32 32l-384 0q-32 0-32-32l0 0q0-32 32-32Z"  /></svg>