<?xml version="1.0" standalone="no"?><!DOCTYPE svg PUBLIC "-//W3C//DTD SVG 1.1//EN" "http://www.w3.org/Graphics/SVG/1.1/DTD/svg11.dtd"><svg class="icon" width="32px" height="31.97px" viewBox="0 0 1025 1024" version="1.1" xmlns="http://www.w3.org/2000/svg"><path fill="#515151" d="M437.864536 428.675681L170.962629 70.418089a44.782199 44.782199 0 0 1 6.01361-60.264045 39.856157 39.856157 0 0 1 57.001342 4.030398L512.266961 341.03052 790.556341 14.184442a39.856157 39.856157 0 0 1 56.937367-4.094373 44.782199 44.782199 0 0 1 6.077584 59.944172l-267.029855 358.257593 165.822085 194.930515a200.304379 200.304379 0 0 1 244.958629 91.291712 209.516717 209.516717 0 0 1-46.829385 261.975864 199.024888 199.024888 0 0 1-260.760348-2.94283 209.580692 209.580692 0 0 1-41.071674-262.935483q-2.23911-2.558983-4.286296-5.309889L512.266961 527.964214z m-54.186461 63.974571L461.087305 596.097131l-81.18373 108.75677q-1.983212 3.070779-4.094372 5.309889a209.580692 209.580692 0 0 1-41.071674 262.935483 199.024888 199.024888 0 0 1-260.760348 3.006805 209.516717 209.516717 0 0 1-46.829385-261.975865A200.304379 200.304379 0 0 1 272.106425 623.158375l111.635625-131.083895z m-168.445043 447.82199a121.551683 121.551683 0 0 0 100.312126-72.291264 126.093878 126.093878 0 0 0-12.794914-124.686437 120.272192 120.272192 0 0 0-112.787167-49.452343 123.342971 123.342971 0 0 0-105.558041 135.881987A122.06348 122.06348 0 0 0 215.233032 940.472242z m593.939909 0a120.208217 120.208217 0 0 0 112.659218-49.516317 126.093878 126.093878 0 0 0 12.794914-124.558488 120.783988 120.783988 0 0 0-231.204097 38.384742 123.342971 123.342971 0 0 0 105.813939 135.690063z m0 0" /></svg>