<?xml version="1.0" standalone="no"?><!DOCTYPE svg PUBLIC "-//W3C//DTD SVG 1.1//EN" "http://www.w3.org/Graphics/SVG/1.1/DTD/svg11.dtd"><svg class="icon" width="32px" height="32.00px" viewBox="0 0 1024 1024" version="1.1" xmlns="http://www.w3.org/2000/svg"><path fill="#515151" d="M512.35 704.197A192.197 192.197 0 1 1 704.549 512a188.76 188.76 0 0 1-192.197 192.197z m0-320.329A128.132 128.132 0 1 0 640.483 512a128.497 128.497 0 0 0-128.131-128.132zM640.263 1023.94h-255.97a30.205 30.205 0 0 1-31.96-31.959V870.358a697.483 697.483 0 0 1-70.356-38.395L179.59 895.955a33.715 33.715 0 0 1-44.758-12.798L7.065 659.147a27.499 27.499 0 0 1 12.798-44.76l102.389-63.992v-76.79L19.863 409.61a27.499 27.499 0 0 1-12.798-44.758l127.912-224.01a29.839 29.839 0 0 1 44.758-6.363l102.388 63.992a248.145 248.145 0 0 1 70.356-38.395V32.018a30.205 30.205 0 0 1 31.96-31.96h255.97a30.205 30.205 0 0 1 31.96 31.96v121.623a697.556 697.556 0 0 1 70.355 38.395l102.388-63.992a33.715 33.715 0 0 1 44.759 12.798l127.912 223.938a27.499 27.499 0 0 1-12.799 44.758l-102.388 63.993v76.791l102.388 63.993a36.567 36.567 0 0 1 12.799 44.758L889.724 883.157a36.567 36.567 0 0 1-44.758 12.798l-102.388-63.992a248.145 248.145 0 0 1-70.355 38.395v121.55a30.205 30.205 0 0 1-31.96 32.033z m-223.865-63.992h191.905V851.124a35.178 35.178 0 0 1 19.161-31.96 407.725 407.725 0 0 0 89.663-51.194 40.736 40.736 0 0 1 38.396 0l95.952 57.557 95.953-166.38-95.953-57.558c-12.798-12.798-19.161-25.597-12.798-38.395 0-19.161 6.362-31.96 6.362-51.194a141.003 141.003 0 0 0-6.362-51.194 48.927 48.927 0 0 1 12.798-31.96l95.953-57.557-96.1-166.454-95.952 57.557a40.736 40.736 0 0 1-38.395 0 407.725 407.725 0 0 0-89.517-51.194 55.29 55.29 0 0 1-19.16-38.396V64.052H416.397v108.75a35.178 35.178 0 0 1-19.16 31.96 407.725 407.725 0 0 0-89.664 51.267 40.736 40.736 0 0 1-38.395 0l-95.806-51.194-95.953 166.38 95.953 57.558a23.403 23.403 0 0 1 12.798 32.033c0 19.16-6.363 31.96-6.363 51.194a141.003 141.003 0 0 0 6.363 51.194 23.403 23.403 0 0 1-12.798 31.96L77.42 652.71l95.953 166.454 95.952-57.556a40.736 40.736 0 0 1 38.396 0 407.725 407.725 0 0 0 89.516 51.194 35.178 35.178 0 0 1 19.161 31.96v115.186z" /></svg>