<?xml version="1.0" standalone="no"?><!DOCTYPE svg PUBLIC "-//W3C//DTD SVG 1.1//EN" "http://www.w3.org/Graphics/SVG/1.1/DTD/svg11.dtd"><svg class="icon" width="32px" height="32.00px" viewBox="0 0 1024 1024" version="1.1" xmlns="http://www.w3.org/2000/svg"><path fill="#515151" d="M512 133.035L180.736 298.667 512 464.299l331.264-165.632L512 133.035z m19.072-85.846l426.667 213.334a42.667 42.667 0 0 1 0 76.33L531.072 550.187a42.581 42.581 0 0 1-38.144 0L66.261 336.853a42.667 42.667 0 0 1 0-76.33L492.928 47.189a42.581 42.581 0 0 1 38.144 0z m388.523 426.667a42.667 42.667 0 0 1 38.186 76.33L531.115 763.52a42.581 42.581 0 0 1-38.144 0L66.304 550.187a42.667 42.667 0 0 1 38.187-76.331L512 677.632l407.595-203.776z m0 213.333a42.667 42.667 0 0 1 38.186 76.331L531.115 976.853a42.581 42.581 0 0 1-38.144 0L66.304 763.52a42.667 42.667 0 0 1 38.187-76.33L512 890.964 919.595 687.19z" /></svg>