<?xml version="1.0" standalone="no"?><!DOCTYPE svg PUBLIC "-//W3C//DTD SVG 1.1//EN" "http://www.w3.org/Graphics/SVG/1.1/DTD/svg11.dtd"><svg class="icon" width="32px" height="32.00px" viewBox="0 0 1024 1024" version="1.1" xmlns="http://www.w3.org/2000/svg"><path fill="#515151" d="M197.4272 570.25422222H143.05659259v50.4869926h170.87905186v-50.4869926H263.44865185V317.81925925h15.53445926c46.60337778 0 54.37060741 3.88361482 62.13783704 38.83614816h46.60337777l-7.76722962-89.32314074H77.03514075l-11.65084445 139.81013333h46.60337778v-19.41807408c7.76722963-66.02145185 11.65084445-69.90506667 69.90506667-69.90506667h15.53445925v252.43496297z"  /><path fill="#515151" d="M504.23277037 710.06435555h-66.02145185v-108.7412148h23.30168889c27.1853037 0 27.1853037 0 27.1853037 34.95253333v19.41807407h46.60337778v-159.2282074h-46.60337778v19.41807407c0 34.95253333 0 34.95253333-27.1853037 34.95253333h-23.30168889v-93.20675556h62.13783703c58.25422222 0 62.13783703 15.53445925 66.02145186 69.90506666h46.60337777l-11.65084443-124.27567407h-271.85303705v50.4869926h38.83614815v248.55134814h-38.83614815v50.4869926h275.73665185l15.53445927-100.97398519h-50.4869926c0 42.71976297-15.53445925 58.25422222-66.02145185 58.25422222z"  /><path fill="#515151" d="M733.36604445 574.13783703h-19.41807408l58.25422222-85.43952592 58.25422223 85.43952592h-11.65084445v42.71976297h139.81013333v-46.60337778H939.19762963c-23.30168889 0-23.30168889 0-27.18530371-7.76722963l-93.20675555-135.92651851 62.13783704-89.32314075c7.76722963-7.76722963 15.53445925-23.30168889 42.71976296-23.30168888h19.41807408V263.44865185H822.68918518v46.60337778h19.41807407l-3.8836148 3.88361482-46.60337778 66.02145185-50.48699259-62.13783705h11.65084444V263.44865185h-139.81013334V317.81925925h19.41807407c23.30168889 0 23.30168889 0 27.18530372 7.76722964l81.55591111 120.39205926-69.90506667 104.8576-11.65084444 11.65084444c-7.76722963 7.76722963-19.41807408 11.65084445-31.06891852 11.65084444h-19.41807408v46.60337779h124.27567408v-46.60337779z"  /></svg>